<svg height="512" viewBox="0 0 58 60" width="512" xmlns="http://www.w3.org/2000/svg"><g id="Page-1" fill="none" fill-rule="evenodd"><g id="030---Facemask" fill="rgb(0,0,0)" fill-rule="nonzero"><path id="Shape" d="m47.035 17.629c-.584845-1.2767516-1.5214181-2.3604013-2.7-3.124-1.7288988-1.1642759-3.6258814-2.0569538-5.625-2.647-6.3147558-2.0000134-13.0932442-2.0000134-19.408 0-2.0007838.5882621-3.8997634 1.4792413-5.631 2.642-1.1898955.7739172-2.1339362 1.8716551-2.721 3.164l-.13.357c-1.087 3.282.33 10.392 3.888 19.508.1238502.341006.4226795.5881849.7808604.6458946s.719523-.0831032.9442104-.3679532c.2246875-.28485.2774719-.6690507.1379292-1.0039414-3.933-10.078-4.571-15.984-3.862-18.121l.105-.292c.4524329-.9223591 1.1498765-1.7024858 2.016-2.255 1.5596286-1.0439811 3.2692572-1.8441682 5.07-2.373 5.9197415-1.8750177 12.2742585-1.8750177 18.194 0 1.8032788.5288359 3.5153124 1.3297183 5.077 2.375.8613475.5421174 1.5540636 1.3141494 2 2.229l.084.216c.928 2.813-.54 9.8-3.832 18.223-.2010316.5144532.0530468 1.0944684.5675 1.2955s1.0944684-.0530468 1.2955-.5675c3.559-9.11 4.968-16.245 3.852-19.621z"/><path id="Shape" d="m33.44 52.542c-2.6438103 1.9348606-6.2361897 1.9348606-8.88 0-.4578441-.3092795-1.0797205-.1888441-1.389.269s-.1888441 1.0797205.269 1.389c3.3177616 2.4012843 7.8022384 2.4012843 11.12 0 .2959946-.2000687.4627694-.5428511.4375021-.8992242-.0252673-.3563732-.2387381-.6721957-.56-.8285001s-.7015076-.1293445-.9975021.0707243z"/><path id="Shape" d="m55.812 8.748c-.8765888-1.16882951-2.4677163-1.53620769-3.768-.87l-5.919 3.03c-.053-.035-.108-.069-.162-.1-.0113407-.0866539-.0342097-.1714039-.068-.252-.216-.434-5.409-10.556-16.895-10.556s-16.679 10.122-16.895 10.553c-.0337841.0802511-.0566545.16467-.068.251l-.162.1-5.919-3.026c-1.30051781-.66599457-2.89169638-.29818233-3.768.871l-.7.929c-.49864658.667535-.6972116 1.5123822-.54812773 2.3321537.14908386.8197716.63238561 1.5406143 1.33412773 1.9898463l4.692 3.005c-1.53 5.222.945 13.965 3.749 21.294-.80898564-.332083-1.72462813-.2813773-2.492.138l-4.841 2.9c-.86.514-1.768 1.761-1.216 4.785.51289482 2.3894939 1.43478768 4.6724051 2.725 6.748 2.3 3.838 5.589 7.137 8.128 7.137.3695818-.0050191.733655-.0903221 1.067-.25.0891996-.023772.1746779-.0597806.254-.107l4.841-2.9c.1817289-.1111887.3481394-.2456618.495-.4 2.5628338 2.3066251 5.8763202 3.6037321 9.324 3.65 3.4472885-.0454422 6.760727-1.3414643 9.324-3.647.1484036.1546836.3165127.2891709.5.4l4.841 2.9c.0796553.0475034.1654568.0838429.255.108.3332233.1588908.6968695.2438325 1.066.249 2.539 0 5.831-3.3 8.128-7.137 1.2901062-2.0752887 2.2119956-4.3578529 2.725-6.747.552-3.024-.356-4.271-1.216-4.785l-4.841-2.9c-.7681014-.4187168-1.6841744-.4683236-2.493-.135 2.8-7.323 5.274-16.057 3.749-21.3l4.688-3.006c.7023142-.4498649 1.1856509-1.1717951 1.3340138-1.9925338.1483628-.8207387-.0516415-1.6661947-.5520138-2.3334662zm-26.812-6.748c6.854 0 11.272 4.193 13.463 6.992-.8-.335-1.636-.656-2.537-.944-7.1089314-2.25849476-14.7430686-2.25849476-21.852 0-.9.288-1.735.609-2.537.944 2.191-2.799 6.609-6.992 13.463-6.992zm-26.092 9.655c-.05025537-.2736558.01648415-.5558479.184-.778l.7-.928c.29191101-.38996271.82233795-.51285622 1.256-.291l5.052 2.587c-.94152495.8228796-1.73678485 1.7993722-2.352 2.888l-4.395-2.814c-.23533036-.1486791-.39693701-.389818-.445-.664zm3.7 40.187c-1.16786264-1.8691126-2.0047834-3.9255561-2.474-6.079-.289-1.584-.07-2.5.276-2.709s1.26.034 2.518 1.037c1.67617781 1.4314851 3.092645 3.1415977 4.187 5.055 1.168697 1.8684373 2.0059969 3.9246429 2.475 6.078.289 1.585.069 2.5-.276 2.71-.761.455-3.825-1.276-6.707-6.092zm11.546 3.2-2.443 1.458c-.0035021-.5481656-.0553699-1.094953-.155-1.634-.5126964-2.3892416-1.4346065-4.6718572-2.725-6.747-1.2189883-2.1177994-2.7944596-4.0092446-4.657-5.591-.42769955-.3426035-.88480689-.646784-1.366-.909l2.442-1.461c.761-.452 3.823 1.276 6.7 6.092s2.968 8.33 2.203 8.788zm10.846 2.958c-3.1806202-.0693524-6.2153807-1.3476921-8.487-3.575.31-2.415-.937-6.02-2.841-9.2-.208-.348-.427-.689-.65-1.025l6.953-10.66c1.1077233-1.6977579 2.9978264-2.7213761 5.025-2.7213761s3.9172767 1.0236182 5.025 2.7213761l6.954 10.66c-.224.337-.443.678-.651 1.027-1.9 3.183-3.151 6.788-2.841 9.2-2.2719333 2.2265756-5.3066566 3.5041844-8.487 3.573zm24.867-12.237c-.4692166 2.1534439-1.3061374 4.2098874-2.474 6.079-2.882 4.817-5.94 6.547-6.7 6.092-.346-.207-.566-1.125-.277-2.71.4690031-2.1533571 1.306303-4.2095627 2.475-6.078 1.094355-1.9134023 2.5108222-3.6235149 4.187-5.055.611863-.5828893 1.3851213-.9679503 2.219-1.105.1043154-.0049485.2080135.0185564.3.068.34.207.559 1.125.27 2.709zm-5.117-5.606 2.442 1.461c-.4811931.262216-.9383005.5663965-1.366.909-1.8625404 1.5817554-3.4380117 3.4732006-4.657 5.591-1.2903935 2.0751428-2.2123036 4.3577584-2.725 6.747-.0996301.539047-.1514979 1.0858344-.155 1.634l-2.442-1.461c-.765-.458-.683-3.975 2.2-8.789s5.94-6.544 6.703-6.092zm-4.331-.045c-.7928543.7208716-1.5231384 1.5076916-2.183 2.352l-6.536-10.02c-1.4769644-2.2636772-3.9971019-3.6285014-6.7-3.6285014s-5.2230356 1.3648242-6.7 3.6285014l-6.534 10.02c-.6608058-.8453621-1.3917294-1.6334883-2.185-2.356-4.345-10.628-5.992-18.718-4.639-22.773l.137-.385c.72488369-1.6619473 1.9168203-3.0776109 3.431-4.075 1.8972405-1.2828787 3.979229-2.2685691 6.174-2.923 6.7122588-2.1309832 13.9197412-2.1309832 20.632 0 2.1949901.6546729 4.2772727 1.6403428 6.175 2.923 1.5056069.9909025 2.6926024 2.3959884 3.418 4.046l.143.4c1.359 4.069-.288 12.161-4.633 22.791zm10.228-27.793-4.39 2.812c-.6172574-1.0880604-1.4141724-2.0638333-2.357-2.886l5.052-2.587c.4334279-.22206923.9638037-.09960984 1.256.29l.7.929c.1667598.222466.2333748.5043147.1838566.7778981s-.210699.5142014-.4448566.6641019z"/><path id="Shape" d="m29 36c-3.3123376.0033074-5.9966926 2.6876624-6 6v1c0 .5522847.4477153 1 1 1s1-.4477153 1-1v-1c0-2.209139 1.790861-4 4-4s4 1.790861 4 4v1c0 .5522847.4477153 1 1 1s1-.4477153 1-1v-1c-.0033074-3.3123376-2.6876624-5.9966926-6-6z"/><path id="Shape" d="m27 47h4c.5522847 0 1-.4477153 1-1s-.4477153-1-1-1h-4c-.5522847 0-1 .4477153-1 1s.4477153 1 1 1z"/><path id="Shape" d="m27 51h4c.5522847 0 1-.4477153 1-1s-.4477153-1-1-1h-4c-.5522847 0-1 .4477153-1 1s.4477153 1 1 1z"/><path id="Shape" d="m21.53 16.152c-.2249034-.1405653-.4964349-.1860306-.7548601-.126394-.2584253.0596367-.4825755.21949-.6231399.444394l-5 8c-.2927109.469442-.149442 1.0872891.32 1.38s1.0872891.149442 1.38-.32l5-8c.1402066-.2253884.1850509-.4972729.1246523-.7557489-.0603986-.2584761-.221084-.482334-.4466523-.6222511z"/><path id="Shape" d="m28.53 14.152c-.2249034-.1405653-.4964349-.1860306-.7548601-.126394-.2584253.0596367-.4825755.21949-.6231399.444394l-10 16c-.2927109.469442-.149442 1.0872891.32 1.38s1.0872891.149442 1.38-.32l10-16c.1402066-.2253884.1850509-.4972729.1246523-.7557489-.0603986-.2584761-.221084-.482334-.4466523-.6222511z"/></g></g></svg>